<svg width="1200" height="630" viewBox="0 0 1200 630" fill="none" xmlns="http://www.w3.org/2000/svg">
  <rect width="1200" height="630" fill="#080808"/>
  <circle cx="940" cy="156" r="260" fill="#D4AF37" fill-opacity="0.18"/>
  <circle cx="210" cy="530" r="300" fill="#D4AF37" fill-opacity="0.12"/>
  <path d="M0 0H1200V630H0V0Z" fill="url(#paint0_linear)"/>
  <text x="92" y="178" fill="#D4AF37" font-family="Georgia, serif" font-size="28" font-weight="700" letter-spacing="12">FLORAL DELIVERY STUDIO</text>
  <text x="88" y="330" fill="#F1F1F1" font-family="Arial Black, Arial, sans-serif" font-size="112" font-weight="900" letter-spacing="-8">FLOWER</text>
  <text x="88" y="448" fill="#F1F1F1" font-family="Arial Black, Arial, sans-serif" font-size="112" font-weight="900" letter-spacing="-8">BOOM</text>
  <text x="94" y="525" fill="#C9C9C9" font-family="Arial, sans-serif" font-size="32">Букеты, открытки и доставка онлайн</text>
  <g transform="translate(790 220)">
    <circle cx="150" cy="100" r="82" fill="#D4AF37"/>
    <circle cx="150" cy="100" r="38" fill="#111111"/>
    <ellipse cx="150" cy="8" rx="44" ry="92" fill="#F1F1F1" fill-opacity="0.92"/>
    <ellipse cx="150" cy="192" rx="44" ry="92" fill="#F1F1F1" fill-opacity="0.92"/>
    <ellipse cx="58" cy="100" rx="92" ry="44" fill="#F1F1F1" fill-opacity="0.92"/>
    <ellipse cx="242" cy="100" rx="92" ry="44" fill="#F1F1F1" fill-opacity="0.92"/>
    <ellipse cx="85" cy="35" rx="44" ry="88" transform="rotate(-45 85 35)" fill="#D4AF37" fill-opacity="0.78"/>
    <ellipse cx="215" cy="35" rx="44" ry="88" transform="rotate(45 215 35)" fill="#D4AF37" fill-opacity="0.78"/>
    <ellipse cx="85" cy="165" rx="44" ry="88" transform="rotate(45 85 165)" fill="#D4AF37" fill-opacity="0.78"/>
    <ellipse cx="215" cy="165" rx="44" ry="88" transform="rotate(-45 215 165)" fill="#D4AF37" fill-opacity="0.78"/>
  </g>
  <defs>
    <linearGradient id="paint0_linear" x1="0" y1="0" x2="1200" y2="630" gradientUnits="userSpaceOnUse">
      <stop stop-color="#080808"/>
      <stop offset="0.55" stop-color="#101010"/>
      <stop offset="1" stop-color="#211706"/>
    </linearGradient>
  </defs>
</svg>
